<?xml version="1.0" standalone="no"?><svg xmlns:xlink="http://www.w3.org/1999/xlink" xmlns="http://www.w3.org/2000/svg" viewBox="0 0 400 400" preserveAspectRatio="xMaxYMax slice"><g transform="scale(0.4362050163576881)"><rect x="0" y="0" width="917" height="917" fill="#ffffff"/><rect x="0" y="0" width="305.67" height="305.67" fill="#52307D"/><rect x="0" y="0" width="305.67" height="305.67" fill="#79C250"/><rect x="305.6666666666667" y="0" width="305.6666666666667" height="305.6666666666667" fill="#ffffff"/><rect x="305.67" y="0" width="152.83" height="152.83" fill="#FE8622"/><polygon points="458.5,0 458.5,152.83 305.67,152.83" fill="#79C250"/><rect x="458.5" y="0" width="152.83" height="152.83" fill="#79C250"/><polygon points="458.5,0 611.33,152.83 458.5,152.83" fill="#FE8622"/><rect x="305.67" y="152.83" width="152.83" height="152.83" fill="#2F2D2E"/><polygon points="305.67,152.83 458.5,152.83 458.5,305.66" fill="#2F2D2E"/><rect x="458.5" y="152.83" width="152.83" height="152.83" fill="#52307D"/><polygon points="458.5,152.83 611.33,152.83 458.5,305.66" fill="#79C250"/><rect x="611.3333333333334" y="0" width="305.6666666666667" height="305.6666666666667" fill="#ffffff"/><rect x="611.33" y="0" width="152.83" height="152.83" fill="#52307D"/><path d="M 611.33 0 A 152.83 152.83 0 0 1 764.1600000000001 152.83 L 611.33 152.83" fill="#52307D"/><rect x="764.17" y="0" width="152.83" height="152.83" fill="#ECCC60"/><path d="M 764.17 152.83 A 152.83 152.83 0 0 1  917 0 L 917 152.83" fill="#2F2D2E"/><rect x="611.33" y="152.83" width="152.83" height="152.83" fill="#52307D"/><path d="M 611.33 305.66 A 152.83 152.83 0 0 0 764.1600000000001 152.83 L 611.33 152.83" fill="#79C250"/><rect x="764.17" y="152.83" width="152.83" height="152.83" fill="#FE8622"/><path d="M 764.17 152.83 A 152.83 152.83 0 0 0 917 305.66 L 917 152.83" fill="#79C250"/><rect x="0" y="305.6666666666667" width="305.6666666666667" height="305.6666666666667" fill="#ffffff"/><rect x="0" y="305.67" width="152.83" height="152.83" fill="#52307D"/><path d="M 0 458.5 A 152.83 152.83 0 0 1  152.83 305.67 L 152.83 458.5" fill="#52307D"/><rect x="152.83" y="305.67" width="152.83" height="152.83" fill="#52307D"/><path d="M 152.83 305.67 A 152.83 152.83 0 0 1 305.66 458.5 L 152.83 458.5" fill="#79C250"/><rect x="0" y="458.5" width="152.83" height="152.83" fill="#ECCC60"/><path d="M 0 458.5 A 152.83 152.83 0 0 0 152.83 611.33 L 152.83 458.5" fill="#FE8622"/><rect x="152.83" y="458.5" width="152.83" height="152.83" fill="#2F2D2E"/><path d="M 152.83 611.33 A 152.83 152.83 0 0 0 305.66 458.5 L 152.83 458.5" fill="#FE8622"/><rect x="305.67" y="305.67" width="305.67" height="305.67" fill="#52307D"/><path d="M 305.67 305.67 A 305.67 305.67 0 0 0 611.34 611.34 L 611.34 305.67" fill="#ECCC60"/><rect x="611.33" y="305.67" width="305.67" height="305.67" fill="#FE8622"/><path d="M 611.33 305.67 A 305.67 305.67 0 0 1 917 611.34 L 611.33 611.34" fill="#79C250"/><rect x="0" y="611.33" width="305.67" height="305.67" fill="#79C250"/><polygon points="0,611.33 305.67,917 0,917" fill="#2F2D2E"/><rect x="305.67" y="611.33" width="305.67" height="305.67" fill="#52307D"/><path d="M 305.67 917 A 305.67 305.67 0 0 1  611.34 611.33 L 305.67 917 A 305.67 305.67 0 0 0 611.34 611.33" fill="#79C250"/><rect x="611.3333333333334" y="611.3333333333334" width="305.6666666666667" height="305.6666666666667" fill="#ffffff"/><rect x="611.33" y="611.33" width="152.83" height="152.83" fill="#52307D"/><path d="M 611.33 611.33 A 152.83 152.83 0 0 0 764.1600000000001 764.1600000000001 L 764.1600000000001 611.33" fill="#FE8622"/><rect x="764.17" y="611.33" width="152.83" height="152.83" fill="#ECCC60"/><path d="M 764.17 764.1600000000001 A 152.83 152.83 0 0 0 917 611.33 L 764.17 611.33" fill="#ECCC60"/><rect x="611.33" y="764.17" width="152.83" height="152.83" fill="#FE8622"/><path d="M 611.33 917 A 152.83 152.83 0 0 1  764.1600000000001 764.17 L 764.1600000000001 917" fill="#FE8622"/><rect x="764.17" y="764.17" width="152.83" height="152.83" fill="#ECCC60"/><path d="M 764.17 764.17 A 152.83 152.83 0 0 1 917 917 L 764.17 917" fill="#79C250"/></g></svg>